<svg width="680" height="500" viewBox="0 0 680 500" xmlns="http://www.w3.org/2000/svg" style="shape-rendering: crispEdges;">

<!-- Transparent background - no background rect -->

<!-- Stars -->
<rect x="80" y="30" width="2" height="2" fill="#ffffff"/>
<rect x="200" y="60" width="2" height="2" fill="#aaaaaa"/>
<rect x="540" y="45" width="2" height="2" fill="#ffffff"/>
<rect x="620" y="90" width="2" height="2" fill="#aaaaaa"/>
<rect x="40" y="120" width="2" height="2" fill="#ffffff"/>
<rect x="630" y="150" width="2" height="2" fill="#ffffff"/>
<rect x="150" y="420" width="2" height="2" fill="#aaaaaa"/>
<rect x="500" y="440" width="2" height="2" fill="#ffffff"/>

<!-- LEFT WING -->
<rect x="30" y="100" width="200" height="280" fill="#1a1a2e"/>
<rect x="30" y="100" width="200" height="8" fill="#2d2d44"/>
<rect x="30" y="372" width="200" height="8" fill="#2d2d44"/>
<rect x="30" y="100" width="8" height="280" fill="#2d2d44"/>
<rect x="222" y="100" width="8" height="280" fill="#2d2d44"/>

<rect x="46" y="116" width="40" height="44" fill="#0a0a1a"/>
<rect x="94" y="116" width="40" height="44" fill="#0d1133"/>
<rect x="142" y="116" width="40" height="44" fill="#0a0a1a"/>
<rect x="190" y="116" width="24" height="44" fill="#0d1133"/>
<rect x="46" y="168" width="40" height="44" fill="#0d1133"/>
<rect x="94" y="168" width="40" height="44" fill="#0a0a1a"/>
<rect x="142" y="168" width="40" height="44" fill="#0d1133"/>
<rect x="190" y="168" width="24" height="44" fill="#0a0a1a"/>
<rect x="46" y="220" width="40" height="44" fill="#0a0a1a"/>
<rect x="94" y="220" width="40" height="44" fill="#0d1133"/>
<rect x="142" y="220" width="40" height="44" fill="#0a0a1a"/>
<rect x="190" y="220" width="24" height="44" fill="#0d1133"/>
<rect x="46" y="272" width="40" height="44" fill="#0d1133"/>
<rect x="94" y="272" width="40" height="44" fill="#0a0a1a"/>
<rect x="142" y="272" width="40" height="44" fill="#0d1133"/>
<rect x="190" y="272" width="24" height="44" fill="#0a0a1a"/>
<rect x="46" y="324" width="40" height="40" fill="#0a0a1a"/>
<rect x="94" y="324" width="40" height="40" fill="#0d1133"/>
<rect x="142" y="324" width="40" height="40" fill="#0a0a1a"/>
<rect x="190" y="324" width="24" height="40" fill="#0d1133"/>

<rect x="30" y="176" width="200" height="4" fill="#cc2200"/>
<rect x="30" y="300" width="200" height="4" fill="#cc2200"/>

<rect x="50" y="384" width="12" height="60" fill="#555566"/>
<rect x="54" y="436" width="4" height="12" fill="#888899"/>
<rect x="52" y="446" width="8" height="4" fill="#ff4400"/>
<rect x="54" y="450" width="4" height="4" fill="#ffaa00"/>
<rect x="176" y="384" width="12" height="60" fill="#555566"/>
<rect x="180" y="436" width="4" height="12" fill="#888899"/>
<rect x="178" y="446" width="8" height="4" fill="#ff4400"/>
<rect x="180" y="450" width="4" height="4" fill="#ffaa00"/>

<!-- RIGHT WING -->
<rect x="450" y="100" width="200" height="280" fill="#1a1a2e"/>
<rect x="450" y="100" width="200" height="8" fill="#2d2d44"/>
<rect x="450" y="372" width="200" height="8" fill="#2d2d44"/>
<rect x="450" y="100" width="8" height="280" fill="#2d2d44"/>
<rect x="642" y="100" width="8" height="280" fill="#2d2d44"/>

<rect x="466" y="116" width="24" height="44" fill="#0d1133"/>
<rect x="498" y="116" width="40" height="44" fill="#0a0a1a"/>
<rect x="546" y="116" width="40" height="44" fill="#0d1133"/>
<rect x="594" y="116" width="40" height="44" fill="#0a0a1a"/>
<rect x="466" y="168" width="24" height="44" fill="#0a0a1a"/>
<rect x="498" y="168" width="40" height="44" fill="#0d1133"/>
<rect x="546" y="168" width="40" height="44" fill="#0a0a1a"/>
<rect x="594" y="168" width="40" height="44" fill="#0d1133"/>
<rect x="466" y="220" width="24" height="44" fill="#0d1133"/>
<rect x="498" y="220" width="40" height="44" fill="#0a0a1a"/>
<rect x="546" y="220" width="40" height="44" fill="#0d1133"/>
<rect x="594" y="220" width="40" height="44" fill="#0a0a1a"/>
<rect x="466" y="272" width="24" height="44" fill="#0a0a1a"/>
<rect x="498" y="272" width="40" height="44" fill="#0d1133"/>
<rect x="546" y="272" width="40" height="44" fill="#0a0a1a"/>
<rect x="594" y="272" width="40" height="44" fill="#0d1133"/>
<rect x="466" y="324" width="24" height="40" fill="#0d1133"/>
<rect x="498" y="324" width="40" height="40" fill="#0a0a1a"/>
<rect x="546" y="324" width="40" height="40" fill="#0d1133"/>
<rect x="594" y="324" width="40" height="40" fill="#0a0a1a"/>

<rect x="450" y="176" width="200" height="4" fill="#cc2200"/>
<rect x="450" y="300" width="200" height="4" fill="#cc2200"/>

<rect x="466" y="384" width="12" height="60" fill="#555566"/>
<rect x="470" y="436" width="4" height="12" fill="#888899"/>
<rect x="468" y="446" width="8" height="4" fill="#ff4400"/>
<rect x="470" y="450" width="4" height="4" fill="#ffaa00"/>
<rect x="620" y="384" width="12" height="60" fill="#555566"/>
<rect x="624" y="436" width="4" height="12" fill="#888899"/>
<rect x="622" y="446" width="8" height="4" fill="#ff4400"/>
<rect x="624" y="450" width="4" height="4" fill="#ffaa00"/>

<!-- CENTER COCKPIT -->
<rect x="270" y="150" width="140" height="180" fill="#3a3a4a"/>
<rect x="278" y="142" width="124" height="8" fill="#444455"/>
<rect x="278" y="330" width="124" height="8" fill="#333344"/>
<rect x="262" y="158" width="8" height="164" fill="#444455"/>
<rect x="410" y="158" width="8" height="164" fill="#333344"/>

<rect x="270" y="150" width="20" height="20" fill="#555566"/>
<rect x="390" y="150" width="20" height="20" fill="#555566"/>
<rect x="270" y="310" width="20" height="20" fill="#555566"/>
<rect x="390" y="310" width="20" height="20" fill="#555566"/>

<rect x="296" y="176" width="88" height="128" fill="#222233"/>
<rect x="304" y="184" width="72" height="112" fill="#220000"/>
<rect x="316" y="196" width="48" height="88" fill="#440000"/>
<rect x="328" y="208" width="24" height="64" fill="#880000"/>
<rect x="334" y="220" width="12" height="40" fill="#cc0000"/>
<rect x="337" y="228" width="6" height="24" fill="#ff2200"/>
<rect x="339" y="234" width="2" height="12" fill="#ff8800"/>

<rect x="276" y="196" width="6" height="6" fill="#666677"/>
<rect x="276" y="268" width="6" height="6" fill="#666677"/>
<rect x="398" y="196" width="6" height="6" fill="#666677"/>
<rect x="398" y="268" width="6" height="6" fill="#666677"/>

<rect x="326" y="330" width="28" height="16" fill="#444455"/>
<rect x="330" y="346" width="20" height="8" fill="#555566"/>
<rect x="334" y="354" width="12" height="24" fill="#666677"/>
<rect x="336" y="376" width="8" height="4" fill="#ff4400"/>
<rect x="338" y="380" width="4" height="4" fill="#ffaa00"/>

<!-- WING CONNECTORS -->
<rect x="230" y="218" width="40" height="44" fill="#2a2a3a"/>
<rect x="230" y="224" width="40" height="4" fill="#3a3a4a"/>
<rect x="230" y="254" width="40" height="4" fill="#3a3a4a"/>
<rect x="410" y="218" width="40" height="44" fill="#2a2a3a"/>
<rect x="410" y="224" width="40" height="4" fill="#3a3a4a"/>
<rect x="410" y="254" width="40" height="4" fill="#3a3a4a"/>

<!-- LASER BOLTS -->
<rect x="56" y="460" width="4" height="16" fill="#ff3300"/>
<rect x="58" y="474" width="2" height="8" fill="#ffcc00"/>
<rect x="473" y="460" width="4" height="16" fill="#ff3300"/>
<rect x="475" y="474" width="2" height="8" fill="#ffcc00"/>
<rect x="339" y="384" width="4" height="20" fill="#ff4400"/>
<rect x="340" y="402" width="2" height="10" fill="#ffcc00"/>

</svg>
